{
.appVersion = "3241";
.formatVersion = 3;
DisplayStrings = (
"b//acc: 
  
Accelerationism
and the Bahá’í Faith  

Eli Heuer  ",
"ABCDEFGHIJKLMNOPQRSTUVWXYZ
abcdefghijklmnopqrstuvwxyz 1234567890 "
);
date = "2024-03-09 04:58:48 +0000";
familyName = Rena;
fontMaster = (
{
id = m01;
metricValues = (
{
over = 16;
pos = 832;
},
{
over = 16;
pos = 800;
},
{
over = 16;
pos = 576;
},
{
over = -16;
},
{
over = -16;
pos = -200;
},
{
}
);
name = Regular;
}
);
glyphs = (
{
color = 5;
glyphname = A;
kernLeft = A;
kernRight = A;
lastChange = "2024-03-14 05:28:30 +0000";
layers = (
{
layerId = m01;
shapes = (
{
closed = 1;
nodes = (
(76,0,l),
(92,16,l),
(156,180,l),
(172,196,l),
(516,196,l),
(532,180,l),
(596,16,l),
(612,0,l),
(664,0,l),
(680,16,l),
(680,104,l),
(432,784,l),
(416,800,l),
(272,800,l),
(256,784,l),
(8,104,l),
(8,16,l),
(24,0,l)
);
},
{
closed = 1;
nodes = (
(204,312,l),
(324,668,l),
(364,668,l),
(484,312,l),
(468,296,l),
(220,296,l)
);
}
);
width = 688;
}
);
unicode = 65;
},
{
color = 5;
glyphname = B;
kernLeft = H;
kernRight = B;
lastChange = "2024-03-15 18:11:16 +0000";
layers = (
{
layerId = m01;
shapes = (
{
closed = 1;
nodes = (
(408,0,ls),
(540,0,o),
(664,56,o),
(664,232,cs),
(664,336,o),
(608,384,o),
(544,408,c),
(544,424,l),
(600,448,o),
(648,504,o),
(648,584,cs),
(648,744,o),
(514,800,o),
(392,800,cs),
(72,800,l),
(56,784,l),
(56,16,l),
(72,0,l)
);
},
{
closed = 1;
nodes = (
(524,496,o),
(476,468,o),
(380,468,cs),
(188,468,l),
(172,484,l),
(172,676,l),
(188,692,l),
(372,692,ls),
(476,692,o),
(524,672,o),
(524,584,cs)
);
},
{
closed = 1;
nodes = (
(540,144,o),
(492,108,o),
(404,108,cs),
(188,108,l),
(172,124,l),
(172,348,l),
(188,364,l),
(380,364,ls),
(492,364,o),
(540,336,o),
(540,232,cs)
);
}
);
width = 696;
}
);
unicode = 66;
},
{
color = 5;
glyphname = C;
kernLeft = O;
kernRight = C;
lastChange = "2024-03-15 10:25:28 +0000";
layers = (
{
layerId = m01;
shapes = (
{
closed = 1;
nodes = (
(600,-16,o),
(704,100,o),
(728,236,c),
(712,252,l),
(636,252,l),
(620,236,l),
(600,156,o),
(532,92,o),
(408,92,cs),
(236,92,o),
(148,216,o),
(148,400,cs),
(148,584,o),
(236,708,o),
(408,708,cs),
(520,708,o),
(596,656,o),
(616,576,c),
(632,560,l),
(716,560,l),
(732,576,l),
(708,712,o),
(592,816,o),
(408,816,cs),
(168,816,o),
(32,640,o),
(32,400,cs),
(32,160,o),
(168,-16,o),
(408,-16,cs)
);
}
);
width = 760;
}
);
unicode = 67;
},
{
color = 5;
glyphname = D;
kernLeft = H;
kernRight = O;
lastChange = "2024-03-15 10:25:43 +0000";
layers = (
{
layerId = m01;
shapes = (
{
closed = 1;
nodes = (
(308,0,ls),
(592,0,o),
(684,160,o),
(684,400,cs),
(684,640,o),
(592,800,o),
(308,800,cs),
(72,800,l),
(56,784,l),
(56,16,l),
(72,0,l)
);
},
{
closed = 1;
nodes = (
(172,124,l),
(172,676,l),
(188,692,l),
(296,692,ls),
(512,692,o),
(568,596,o),
(568,400,cs),
(568,208,o),
(512,108,o),
(296,108,cs),
(188,108,l)
);
}
);
width = 716;
}
);
unicode = 68;
},
{
color = 5;
glyphname = E;
kernLeft = H;
kernRight = E;
lastChange = "2024-03-14 05:28:30 +0000";
layers = (
{
layerId = m01;
shapes = (
{
closed = 1;
nodes = (
(584,0,l),
(600,16,l),
(600,92,l),
(584,108,l),
(188,108,l),
(172,124,l),
(172,340,l),
(188,356,l),
(560,356,l),
(576,372,l),
(576,448,l),
(560,464,l),
(188,464,l),
(172,480,l),
(172,676,l),
(188,692,l),
(584,692,l),
(600,708,l),
(600,784,l),
(584,800,l),
(72,800,l),
(56,784,l),
(56,16,l),
(72,0,l)
);
}
);
width = 640;
}
);
unicode = 69;
},
{
color = 5;
glyphname = F;
kernLeft = H;
kernRight = F;
lastChange = "2024-03-15 18:11:04 +0000";
layers = (
{
layerId = m01;
shapes = (
{
closed = 1;
nodes = (
(156,0,l),
(172,16,l),
(172,336,l),
(180,344,l),
(544,344,l),
(552,352,l),
(552,444,l),
(544,452,l),
(180,452,l),
(172,460,l),
(172,684,l),
(180,692,l),
(560,692,l),
(576,708,l),
(576,792,l),
(560,800,l),
(72,800,l),
(56,792,l),
(56,16,l),
(72,0,l)
);
}
);
width = 600;
}
);
unicode = 70;
},
{
color = 5;
glyphname = G;
kernLeft = G;
kernRight = G;
lastChange = "2024-03-15 10:27:30 +0000";
layers = (
{
layerId = m01;
shapes = (
{
closed = 1;
nodes = (
(500,-16,o),
(564,24,o),
(620,80,c),
(636,80,l),
(652,16,l),
(668,0,l),
(724,0,l),
(740,16,l),
(740,408,l),
(724,424,l),
(388,424,l),
(372,408,l),
(372,332,l),
(388,316,l),
(608,316,l),
(624,300,l),
(624,188,o),
(568,92,o),
(396,92,cs),
(236,92,o),
(148,216,o),
(148,400,cs),
(148,584,o),
(236,708,o),
(408,708,cs),
(532,708,o),
(600,652,o),
(624,572,c),
(636,560,l),
(728,560,l),
(740,572,l),
(716,688,o),
(624,816,o),
(408,816,cs),
(168,816,o),
(32,640,o),
(32,400,cs),
(32,160,o),
(168,-16,o),
(396,-16,cs)
);
}
);
width = 780;
},
{
associatedMasterId = m01;
layerId = "51D1C8E2-FE34-4DA9-B6DB-6F3F79AC0821";
name = "Mar 13, 24 at 21:47";
shapes = (
{
closed = 1;
nodes = (
(500,-16,o),
(564,24,o),
(620,80,c),
(636,80,l),
(652,16,l),
(668,0,l),
(724,0,l),
(740,16,l),
(740,408,l),
(724,424,l),
(388,424,l),
(372,408,l),
(372,332,l),
(388,316,l),
(608,316,l),
(624,300,l),
(624,188,o),
(568,92,o),
(396,92,cs),
(236,92,o),
(148,216,o),
(148,400,cs),
(148,584,o),
(236,708,o),
(408,708,cs),
(532,708,o),
(600,652,o),
(624,572,c),
(636,560,l),
(728,560,l),
(740,572,l),
(716,688,o),
(624,816,o),
(408,816,cs),
(168,816,o),
(32,640,o),
(32,400,cs),
(32,160,o),
(168,-16,o),
(396,-16,cs)
);
}
);
width = 780;
}
);
unicode = 71;
},
{
color = 5;
glyphname = H;
kernLeft = H;
kernRight = H;
lastChange = "2024-03-15 10:28:14 +0000";
layers = (
{
layerId = m01;
shapes = (
{
closed = 1;
nodes = (
(152,0,l),
(168,16,l),
(164,340,l),
(180,356,l),
(516,356,l),
(532,340,l),
(532,16,l),
(548,0,l),
(632,0,l),
(648,16,l),
(648,784,l),
(632,800,l),
(548,800,l),
(532,784,l),
(532,480,l),
(516,464,l),
(180,464,l),
(164,480,l),
(164,784,l),
(148,800,l),
(64,800,l),
(48,784,l),
(52,16,l),
(68,0,l)
);
}
);
width = 696;
}
);
unicode = 72;
},
{
color = 5;
glyphname = I;
lastChange = "2024-03-15 17:30:26 +0000";
layers = (
{
layerId = m01;
shapes = (
{
closed = 1;
nodes = (
(148,0,l),
(164,16,l),
(164,784,l),
(148,800,l),
(60,800,l),
(44,784,l),
(48,16,l),
(64,0,l)
);
}
);
width = 212;
}
);
unicode = 73;
},
{
color = 5;
glyphname = J;
lastChange = "2024-03-15 17:37:15 +0000";
layers = (
{
layerId = m01;
shapes = (
{
closed = 1;
nodes = (
(424,-16,o),
(492,92,o),
(492,216,cs),
(492,784,l),
(476,800,l),
(392,800,l),
(376,784,l),
(376,216,ls),
(376,124,o),
(332,92,o),
(252,92,cs),
(152,92,o),
(140,160,o),
(140,204,cs),
(140,224,l),
(124,240,l),
(40,240,l),
(24,224,l),
(24,204,ls),
(24,128,o),
(60,-16,o),
(252,-16,cs)
);
}
);
width = 532;
}
);
unicode = 74;
},
{
color = 5;
glyphname = K;
lastChange = "2024-03-15 17:41:08 +0000";
layers = (
{
layerId = m01;
shapes = (
{
closed = 1;
nodes = (
(148,0,l),
(164,16,l),
(164,248,l),
(172,264,l),
(276,368,l),
(292,368,l),
(564,12,l),
(584,0,l),
(628,0,l),
(644,16,l),
(644,92,l),
(368,448,l),
(368,464,l),
(620,708,l),
(620,784,l),
(604,800,l),
(572,800,l),
(548,784,l),
(180,412,l),
(164,412,l),
(164,784,l),
(148,800,l),
(64,800,l),
(48,784,l),
(48,16,l),
(64,0,l)
);
}
);
width = 676;
}
);
unicode = 75;
},
{
color = 5;
glyphname = L;
lastChange = "2024-03-15 17:48:14 +0000";
layers = (
{
layerId = m01;
shapes = (
{
closed = 1;
nodes = (
(548,0,l),
(564,16,l),
(564,88,l),
(548,104,l),
(180,104,l),
(164,120,l),
(164,784,l),
(148,800,l),
(64,800,l),
(48,784,l),
(48,16,l),
(64,0,l)
);
}
);
width = 588;
}
);
unicode = 76;
},
{
color = 5;
glyphname = M;
lastChange = "2024-03-15 17:56:01 +0000";
layers = (
{
layerId = m01;
shapes = (
{
closed = 1;
nodes = (
(148,0,l),
(164,16,l),
(164,560,l),
(180,560,l),
(404,16,l),
(420,0,l),
(512,0,l),
(528,16,l),
(752,560,l),
(768,560,l),
(768,16,l),
(784,0,l),
(868,0,l),
(884,16,l),
(884,784,l),
(868,800,l),
(748,800,l),
(732,784,l),
(476,148,l),
(460,148,l),
(196,784,l),
(180,800,l),
(64,800,l),
(48,784,l),
(48,16,l),
(64,0,l)
);
}
);
width = 932;
}
);
unicode = 77;
},
{
color = 5;
glyphname = N;
lastChange = "2024-03-15 17:58:44 +0000";
layers = (
{
layerId = m01;
shapes = (
{
closed = 1;
nodes = (
(148,0,l),
(164,16,l),
(164,608,l),
(180,608,l),
(564,16,l),
(580,0,l),
(684,0,l),
(700,16,l),
(700,784,l),
(684,800,l),
(600,800,l),
(584,784,l),
(584,196,l),
(568,196,l),
(184,784,l),
(168,800,l),
(64,800,l),
(48,784,l),
(48,16,l),
(64,0,l)
);
}
);
width = 748;
}
);
unicode = 78;
},
{
color = 5;
glyphname = O;
lastChange = "2024-03-15 18:11:45 +0000";
layers = (
{
layerId = m01;
shapes = (
{
closed = 1;
nodes = (
(648,-16,o),
(784,160,o),
(784,400,cs),
(784,640,o),
(648,816,o),
(408,816,cs),
(168,816,o),
(32,640,o),
(32,400,cs),
(32,160,o),
(168,-16,o),
(408,-16,cs)
);
},
{
closed = 1;
nodes = (
(236,92,o),
(148,216,o),
(148,400,cs),
(148,584,o),
(236,708,o),
(408,708,cs),
(580,708,o),
(668,584,o),
(668,400,cs),
(668,216,o),
(580,92,o),
(408,92,cs)
);
}
);
width = 816;
}
);
unicode = 79;
},
{
color = 5;
glyphname = P;
lastChange = "2024-03-15 18:19:15 +0000";
layers = (
{
layerId = m01;
shapes = (
{
closed = 1;
nodes = (
(148,0,l),
(164,16,l),
(164,328,l),
(180,344,l),
(364,344,ls),
(512,344,o),
(628,412,o),
(628,572,cs),
(628,732,o),
(524,800,o),
(364,800,cs),
(64,800,l),
(48,784,l),
(48,16,l),
(64,0,l)
);
},
{
closed = 1;
nodes = (
(164,456,l),
(164,680,l),
(180,696,l),
(364,696,ls),
(468,696,o),
(516,664,o),
(516,572,cs),
(516,480,o),
(468,444,o),
(364,444,cs),
(180,444,l)
);
}
);
width = 644;
}
);
unicode = 80;
},
{
color = 5;
glyphname = Q;
lastChange = "2024-03-15 18:24:29 +0000";
layers = (
{
layerId = m01;
shapes = (
{
closed = 1;
nodes = (
(488,-16,o),
(564,12,o),
(620,48,c),
(636,48,l),
(680,0,l),
(736,0,l),
(752,16,l),
(752,92,l),
(716,128,l),
(716,144,l),
(760,216,o),
(784,276,o),
(784,400,cs),
(784,640,o),
(648,816,o),
(408,816,cs),
(168,816,o),
(32,640,o),
(32,400,cs),
(32,160,o),
(168,-16,o),
(408,-16,cs)
);
},
{
closed = 1;
nodes = (
(236,88,o),
(144,216,o),
(144,400,cs),
(144,584,o),
(236,708,o),
(408,708,cs),
(580,708,o),
(672,584,o),
(672,400,cs),
(672,320,o),
(660,264,o),
(636,216,c),
(620,216,l),
(476,368,l),
(460,384,l),
(424,384,l),
(408,368,l),
(408,284,l),
(420,268,l),
(544,144,l),
(544,128,l),
(512,104,o),
(464,88,o),
(408,88,cs)
);
}
);
width = 816;
}
);
unicode = 81;
},
{
color = 5;
glyphname = R;
lastChange = "2024-03-15 18:35:07 +0000";
layers = (
{
layerId = m01;
shapes = (
{
closed = 1;
nodes = (
(176,480,l),
(176,672,l),
(192,688,l),
(400,688,ls),
(498,688,o),
(552,674,o),
(552,576,cs),
(552,486,o),
(498,464,o),
(400,464,cs),
(192,464,l)
);
},
{
closed = 1;
nodes = (
(160,0,l),
(176,16,l),
(176,336,l),
(192,352,l),
(352,352,l),
(368,336,l),
(560,16,l),
(576,0,l),
(640,0,l),
(656,16,l),
(656,80,l),
(496,344,l),
(496,360,l),
(600,384,o),
(672,456,o),
(672,576,cs),
(672,740,o),
(566,800,o),
(408,800,cs),
(72,800,l),
(56,784,l),
(56,16,l),
(72,0,l)
);
}
);
width = 712;
}
);
unicode = 82;
},
{
color = 5;
glyphname = S;
lastChange = "2024-03-15 18:35:30 +0000";
layers = (
{
layerId = m01;
shapes = (
{
closed = 1;
nodes = (
(560,-16,o),
(652,92,o),
(652,216,cs),
(652,376,o),
(536,436,o),
(376,456,cs),
(216,480,o),
(160,504,o),
(160,596,cs),
(160,664,o),
(216,708,o),
(320,708,cs),
(468,708,o),
(512,668,o),
(512,576,c),
(528,560,l),
(612,560,l),
(628,576,l),
(628,748,o),
(504,816,o),
(332,816,cs),
(124,816,o),
(44,696,o),
(44,596,cs),
(44,456,o),
(148,388,o),
(308,368,cs),
(468,344,o),
(536,320,o),
(536,216,cs),
(536,128,o),
(448,92,o),
(344,92,cs),
(208,92,o),
(136,132,o),
(136,248,c),
(120,264,l),
(36,264,l),
(20,248,l),
(20,76,o),
(148,-16,o),
(344,-16,cs)
);
}
);
width = 676;
}
);
unicode = 83;
},
{
color = 5;
glyphname = T;
lastChange = "2024-03-15 18:45:17 +0000";
layers = (
{
layerId = m01;
shapes = (
{
closed = 1;
nodes = (
(372,0,l),
(388,16,l),
(388,676,l),
(404,692,l),
(636,692,l),
(652,708,l),
(652,784,l),
(636,800,l),
(24,800,l),
(8,784,l),
(8,708,l),
(24,692,l),
(256,692,l),
(272,676,l),
(272,16,l),
(288,0,l)
);
}
);
width = 660;
}
);
unicode = 84;
},
{
color = 5;
glyphname = U;
lastChange = "2024-03-15 18:46:12 +0000";
layers = (
{
layerId = m01;
shapes = (
{
closed = 1;
nodes = (
(552,-16,o),
(664,104,o),
(664,288,cs),
(664,784,l),
(648,800,l),
(568,800,l),
(552,784,l),
(552,288,ls),
(552,172,o),
(492,88,o),
(356,88,cs),
(220,88,o),
(164,172,o),
(164,288,cs),
(164,784,l),
(148,800,l),
(64,800,l),
(48,784,l),
(48,288,ls),
(48,104,o),
(164,-16,o),
(356,-16,cs)
);
}
);
width = 712;
}
);
unicode = 85;
},
{
color = 5;
glyphname = V;
lastChange = "2024-03-15 18:54:27 +0000";
layers = (
{
layerId = m01;
shapes = (
{
closed = 1;
nodes = (
(388,0,l),
(404,16,l),
(668,708,l),
(668,784,l),
(652,800,l),
(592,800,l),
(576,784,l),
(352,160,l),
(332,160,l),
(108,784,l),
(92,800,l),
(32,800,l),
(16,784,l),
(16,708,l),
(276,16,l),
(292,0,l)
);
}
);
width = 684;
}
);
unicode = 86;
},
{
color = 5;
glyphname = W;
lastChange = "2024-03-15 19:03:57 +0000";
layers = (
{
layerId = m01;
shapes = (
{
closed = 1;
nodes = (
(308,0,l),
(324,16,l),
(492,616,l),
(508,616,l),
(676,16,l),
(692,0,l),
(788,0,l),
(804,16,l),
(984,708,l),
(984,784,l),
(968,800,l),
(912,800,l),
(896,784,l),
(748,208,l),
(732,208,l),
(568,784,l),
(552,800,l),
(448,800,l),
(432,784,l),
(268,208,l),
(252,208,l),
(104,784,l),
(88,800,l),
(32,800,l),
(16,784,l),
(16,708,l),
(196,16,l),
(212,0,l)
);
}
);
width = 1000;
}
);
unicode = 87;
},
{
color = 5;
glyphname = X;
lastChange = "2024-03-15 19:06:42 +0000";
layers = (
{
layerId = m01;
shapes = (
{
closed = 1;
nodes = (
(72,0,l),
(96,16,l),
(332,320,l),
(348,320,l),
(584,16,l),
(608,0,l),
(648,0,l),
(664,16,l),
(664,92,l),
(416,400,l),
(416,420,l),
(656,708,l),
(656,784,l),
(640,800,l),
(596,800,l),
(572,784,l),
(348,492,l),
(332,492,l),
(104,784,l),
(80,800,l),
(40,800,l),
(24,784,l),
(24,708,l),
(264,420,l),
(264,400,l),
(16,92,l),
(16,16,l),
(32,0,l)
);
}
);
width = 680;
}
);
unicode = 88;
},
{
color = 5;
glyphname = Y;
lastChange = "2024-03-15 19:16:31 +0000";
layers = (
{
layerId = m01;
shapes = (
{
closed = 1;
nodes = (
(608,708,l),
(608,784,l),
(592,800,l),
(552,800,l),
(528,784,l),
(324,448,l),
(300,448,l),
(96,784,l),
(72,800,l),
(32,800,l),
(16,784,l),
(16,708,l),
(256,320,l),
(256,16,l),
(272,0,l),
(352,0,l),
(368,16,l),
(368,320,l)
);
}
);
width = 624;
}
);
unicode = 89;
},
{
color = 5;
glyphname = Z;
lastChange = "2024-03-15 19:17:27 +0000";
layers = (
{
layerId = m01;
shapes = (
{
closed = 1;
nodes = (
(572,0,l),
(588,16,l),
(588,88,l),
(572,104,l),
(156,104,l),
(156,120,l),
(552,676,l),
(568,712,l),
(568,784,l),
(552,800,l),
(44,800,l),
(28,784,l),
(28,712,l),
(44,696,l),
(428,696,l),
(428,680,l),
(28,128,l),
(16,104,l),
(16,16,l),
(32,0,l)
);
}
);
width = 604;
}
);
unicode = 90;
},
{
color = 5;
glyphname = a;
kernLeft = a;
kernRight = a;
lastChange = "2024-03-14 05:28:30 +0000";
layers = (
{
layerId = m01;
shapes = (
{
closed = 1;
nodes = (
(304,-16,o),
(352,32,o),
(376,64,c),
(392,64,l),
(400,16,o),
(428,0,o),
(488,0,cs),
(520,0,l),
(536,16,l),
(536,88,l),
(520,104,l),
(512,104,ls),
(494,104,o),
(488,112,o),
(488,128,cs),
(488,392,ls),
(488,528,o),
(416,592,o),
(264,592,cs),
(96,592,o),
(48,504,o),
(48,424,cs),
(48,416,l),
(64,400,l),
(136,400,l),
(152,416,l),
(152,424,ls),
(152,464,o),
(192,492,o),
(264,492,cs),
(344,492,o),
(376,464,o),
(376,400,cs),
(376,360,l),
(360,344,l),
(264,344,ls),
(112,344,o),
(8,296,o),
(8,168,cs),
(8,56,o),
(96,-16,o),
(208,-16,cs)
);
},
{
closed = 1;
nodes = (
(160,84,o),
(116,104,o),
(116,168,cs),
(116,232,o),
(152,256,o),
(264,256,cs),
(360,256,l),
(376,240,l),
(376,208,ls),
(376,136,o),
(320,84,o),
(224,84,cs)
);
}
);
width = 544;
}
);
unicode = 97;
},
{
color = 5;
glyphname = aacute;
kernLeft = a;
kernRight = a;
lastChange = "2024-03-14 05:28:30 +0000";
layers = (
{
layerId = m01;
shapes = (
{
ref = a;
},
{
closed = 1;
nodes = (
(312,656,l),
(344,672,l),
(408,800,l),
(408,816,l),
(392,832,l),
(336,832,l),
(304,816,l),
(248,688,l),
(248,672,l),
(264,656,l)
);
}
);
width = 568;
}
);
unicode = 225;
},
{
color = 5;
glyphname = b;
lastChange = "2024-03-14 05:28:30 +0000";
layers = (
{
layerId = m01;
shapes = (
{
closed = 1;
nodes = (
(136,0,l),
(152,16,l),
(168,56,l),
(184,56,l),
(208,16,o),
(256,-16,o),
(328,-16,cs),
(476,-16,o),
(576,112,o),
(576,288,cs),
(576,464,o),
(480,592,o),
(328,592,cs),
(256,592,o),
(208,552,o),
(184,512,c),
(168,512,l),
(168,784,l),
(152,800,l),
(72,800,l),
(56,784,l),
(56,16,l),
(72,0,l)
);
},
{
closed = 1;
nodes = (
(224,88,o),
(160,160,o),
(160,288,cs),
(160,412,o),
(224,488,o),
(312,488,cs),
(408,488,o),
(464,412,o),
(464,288,cs),
(464,160,o),
(408,88,o),
(312,88,cs)
);
}
);
width = 600;
}
);
unicode = 98;
},
{
color = 5;
glyphname = c;
kernLeft = o;
kernRight = c;
lastChange = "2024-03-14 05:28:30 +0000";
layers = (
{
layerId = m01;
shapes = (
{
closed = 1;
nodes = (
(456,-16,o),
(536,80,o),
(552,184,c),
(536,200,l),
(456,200,l),
(440,184,l),
(432,136,o),
(384,88,o),
(304,88,cs),
(192,88,o),
(136,160,o),
(136,288,cs),
(136,416,o),
(192,488,o),
(304,488,cs),
(384,488,o),
(432,440,o),
(440,392,c),
(456,376,l),
(536,376,l),
(552,392,l),
(536,496,o),
(456,592,o),
(304,592,cs),
(120,592,o),
(24,472,o),
(24,288,cs),
(24,104,o),
(120,-16,o),
(304,-16,cs)
);
}
);
width = 576;
}
);
unicode = 99;
},
{
color = 5;
glyphname = d;
lastChange = "2024-03-15 06:03:09 +0000";
layers = (
{
layerId = m01;
shapes = (
{
closed = 1;
nodes = (
(544,16,l),
(544,784,l),
(528,800,l),
(448,800,l),
(432,784,l),
(432,512,l),
(416,512,l),
(392,552,o),
(344,592,o),
(272,592,cs),
(120,592,o),
(24,464,o),
(24,288,cs),
(24,112,o),
(124,-16,o),
(272,-16,cs),
(344,-16,o),
(392,16,o),
(416,56,c),
(432,56,l),
(448,16,l),
(464,0,l),
(528,0,l)
);
},
{
closed = 1;
nodes = (
(192,88,o),
(136,160,o),
(136,288,cs),
(136,412,o),
(192,488,o),
(288,488,cs),
(376,488,o),
(440,412,o),
(440,288,cs),
(440,160,o),
(376,88,o),
(288,88,cs)
);
}
);
width = 600;
}
);
unicode = 100;
},
{
color = 5;
glyphname = e;
kernLeft = o;
kernRight = o;
lastChange = "2024-03-14 05:28:30 +0000";
layers = (
{
layerId = m01;
shapes = (
{
closed = 1;
nodes = (
(140,344,l),
(140,416,o),
(192,488,o),
(288,488,cs),
(384,488,o),
(440,416,o),
(440,344,c),
(424,328,l),
(156,328,l)
);
},
{
closed = 1;
nodes = (
(440,-16,o),
(528,64,o),
(536,160,c),
(520,176,l),
(440,176,l),
(424,160,l),
(400,104,o),
(344,88,o),
(296,88,cs),
(208,88,o),
(140,148,o),
(140,224,c),
(156,240,l),
(536,240,l),
(552,256,l),
(552,312,ls),
(552,448,o),
(472,592,o),
(288,592,cs),
(108,592,o),
(24,448,o),
(24,288,cs),
(24,112,o),
(112,-16,o),
(296,-16,cs)
);
}
);
width = 572;
},
{
associatedMasterId = m01;
layerId = "928E4258-B9EF-48BD-8062-CF1ACF70FDB5";
name = "Mar 13, 24 at 16:45";
shapes = (
{
closed = 1;
nodes = (
(456,-16,o),
(536,80,o),
(552,184,c),
(536,200,l),
(456,200,l),
(440,184,l),
(432,136,o),
(384,88,o),
(304,88,cs),
(192,88,o),
(136,160,o),
(136,288,cs),
(136,416,o),
(192,488,o),
(304,488,cs),
(384,488,o),
(432,440,o),
(440,392,c),
(456,376,l),
(536,376,l),
(552,392,l),
(536,496,o),
(456,592,o),
(304,592,cs),
(120,592,o),
(24,472,o),
(24,288,cs),
(24,104,o),
(120,-16,o),
(304,-16,cs)
);
}
);
visible = 1;
width = 576;
}
);
unicode = 101;
},
{
color = 5;
glyphname = f;
lastChange = "2024-03-15 06:20:33 +0000";
layers = (
{
layerId = m01;
shapes = (
{
closed = 1;
nodes = (
(216,0,l),
(232,16,l),
(232,456,l),
(248,472,l),
(352,472,l),
(368,488,l),
(368,560,l),
(352,576,l),
(248,576,l),
(232,592,l),
(232,628,ls),
(232,660,o),
(244,676,o),
(276,676,cs),
(364,676,l),
(380,692,l),
(380,760,l),
(364,776,l),
(276,776,ls),
(184,776,o),
(116,724,o),
(116,628,cs),
(116,592,l),
(100,576,l),
(32,576,l),
(16,560,l),
(16,488,l),
(32,472,l),
(100,472,l),
(116,456,l),
(116,16,l),
(132,0,l)
);
}
);
width = 396;
}
);
unicode = 102;
},
{
color = 5;
glyphname = g;
lastChange = "2024-03-15 06:32:26 +0000";
layers = (
{
layerId = m01;
shapes = (
{
closed = 1;
nodes = (
(284,-200,ls),
(424,-200,o),
(548,-160,o),
(548,68,cs),
(548,560,l),
(532,576,l),
(460,576,l),
(444,560,l),
(436,516,l),
(420,516,l),
(408,540,o),
(376,592,o),
(276,592,cs),
(116,592,o),
(24,456,o),
(24,288,cs),
(24,116,o),
(116,-16,o),
(276,-16,cs),
(348,-16,o),
(396,16,o),
(420,56,c),
(436,56,l),
(436,-68,o),
(388,-104,o),
(284,-104,cs),
(128,-104,l),
(112,-120,l),
(112,-184,l),
(128,-200,l)
);
},
{
closed = 1;
nodes = (
(196,88,o),
(136,160,o),
(136,288,cs),
(136,412,o),
(196,488,o),
(284,488,cs),
(376,488,o),
(436,424,o),
(436,288,cs),
(436,148,o),
(376,88,o),
(284,88,cs)
);
}
);
width = 596;
}
);
unicode = 103;
},
{
color = 5;
glyphname = h;
lastChange = "2024-03-14 05:28:30 +0000";
layers = (
{
layerId = m01;
shapes = (
{
closed = 1;
nodes = (
(536,16,l),
(536,344,ls),
(536,472,o),
(490,592,o),
(320,592,cs),
(242,592,o),
(192,544,o),
(176,512,c),
(160,512,l),
(160,784,l),
(144,800,l),
(64,800,l),
(48,784,l),
(48,16,l),
(64,0,l),
(144,0,l),
(160,16,l),
(160,296,ls),
(158,434,o),
(214,488,o),
(304,488,cs),
(396,488,o),
(424,408,o),
(424,344,cs),
(424,16,l),
(440,0,l),
(520,0,l)
);
}
);
width = 576;
}
);
unicode = 104;
},
{
color = 5;
glyphname = i;
lastChange = "2024-03-14 05:28:30 +0000";
layers = (
{
layerId = m01;
shapes = (
{
closed = 1;
nodes = (
(144,656,l),
(160,672,l),
(160,784,l),
(144,800,l),
(64,800,l),
(48,784,l),
(48,672,l),
(64,656,l)
);
},
{
closed = 1;
nodes = (
(144,0,l),
(160,16,l),
(160,560,l),
(144,576,l),
(64,576,l),
(48,560,l),
(48,16,l),
(64,0,l)
);
}
);
width = 208;
}
);
unicode = 105;
},
{
color = 5;
glyphname = idotless;
lastChange = "2024-03-14 05:28:30 +0000";
layers = (
{
layerId = m01;
shapes = (
{
closed = 1;
nodes = (
(160,0,l),
(176,16,l),
(176,560,l),
(160,576,l),
(80,576,l),
(64,560,l),
(64,16,l),
(80,0,l)
);
}
);
width = 240;
}
);
unicode = 305;
},
{
color = 5;
glyphname = iacute;
lastChange = "2024-03-14 05:28:30 +0000";
layers = (
{
layerId = m01;
shapes = (
{
ref = idotless;
},
{
closed = 1;
nodes = (
(144,656,l),
(176,672,l),
(240,800,l),
(240,816,l),
(224,832,l),
(168,832,l),
(136,816,l),
(80,688,l),
(80,672,l),
(96,656,l)
);
}
);
width = 240;
}
);
unicode = 237;
},
{
color = 5;
glyphname = j;
lastChange = "2024-03-15 06:34:57 +0000";
layers = (
{
layerId = m01;
shapes = (
{
closed = 1;
nodes = (
(24,-200,ls),
(104,-200,o),
(176,-156,o),
(176,-52,cs),
(176,560,l),
(160,576,l),
(80,576,l),
(64,560,l),
(64,-52,ls),
(64,-88,o),
(52,-100,o),
(24,-100,cs),
(-28,-100,l),
(-44,-116,l),
(-44,-184,l),
(-28,-200,l)
);
},
{
closed = 1;
nodes = (
(160,656,l),
(176,672,l),
(176,784,l),
(160,800,l),
(80,800,l),
(64,784,l),
(64,672,l),
(80,656,l)
);
}
);
width = 232;
}
);
unicode = 106;
},
{
color = 5;
glyphname = k;
lastChange = "2024-03-15 10:19:37 +0000";
layers = (
{
layerId = m01;
shapes = (
{
closed = 1;
nodes = (
(148,0,l),
(164,16,l),
(164,132,l),
(252,220,l),
(268,220,l),
(440,12,l),
(456,0,l),
(500,0,l),
(516,16,l),
(516,92,l),
(348,304,l),
(348,320,l),
(508,484,l),
(508,560,l),
(492,576,l),
(452,576,l),
(180,296,l),
(164,296,l),
(164,784,l),
(148,800,l),
(64,800,l),
(48,784,l),
(48,16,l),
(64,0,l)
);
}
);
width = 540;
}
);
unicode = 107;
},
{
color = 5;
glyphname = l;
lastChange = "2024-03-14 05:28:30 +0000";
layers = (
{
layerId = m01;
shapes = (
{
closed = 1;
nodes = (
(144,0,l),
(160,16,l),
(160,784,l),
(144,800,l),
(64,800,l),
(48,784,l),
(48,16,l),
(64,0,l)
);
}
);
width = 208;
}
);
unicode = 108;
},
{
color = 5;
glyphname = m;
lastChange = "2024-03-15 09:10:01 +0000";
layers = (
{
layerId = m01;
shapes = (
{
closed = 1;
nodes = (
(144,0,l),
(160,16,l),
(160,328,ls),
(160,448,o),
(216,480,o),
(280,480,cs),
(360,480,o),
(384,424,o),
(384,352,cs),
(384,16,l),
(400,0,l),
(480,0,l),
(496,16,l),
(496,328,ls),
(496,424,o),
(536,480,o),
(616,480,cs),
(704,480,o),
(720,424,o),
(720,352,cs),
(720,16,l),
(736,0,l),
(824,0,l),
(840,16,l),
(840,352,ls),
(840,480,o),
(800,592,o),
(640,592,cs),
(560,592,o),
(504,552,o),
(472,504,c),
(456,504,l),
(432,552,o),
(400,592,o),
(320,592,cs),
(240,592,o),
(208,552,o),
(176,512,c),
(160,512,l),
(144,560,l),
(128,576,l),
(64,576,l),
(48,560,l),
(48,16,l),
(64,0,l)
);
}
);
width = 880;
}
);
unicode = 109;
},
{
color = 5;
glyphname = n;
lastChange = "2024-03-14 05:28:30 +0000";
layers = (
{
layerId = m01;
shapes = (
{
closed = 1;
nodes = (
(144,0,l),
(160,16,l),
(160,288,ls),
(160,424,o),
(206,480,o),
(304,480,cs),
(410,480,o),
(424,400,o),
(424,344,cs),
(424,16,l),
(440,0,l),
(520,0,l),
(536,16,l),
(536,344,ls),
(536,480,o),
(480,584,o),
(320,584,cs),
(240,584,o),
(200,544,o),
(176,512,c),
(160,512,l),
(144,560,l),
(128,576,l),
(64,576,l),
(48,560,l),
(48,16,l),
(64,0,l)
);
}
);
width = 576;
}
);
unicode = 110;
},
{
color = 5;
glyphname = o;
kernLeft = o;
kernRight = o;
lastChange = "2024-03-14 05:28:30 +0000";
layers = (
{
layerId = m01;
shapes = (
{
closed = 1;
nodes = (
(472,-16,o),
(568,106,o),
(568,288,cs),
(568,472,o),
(468,592,o),
(296,592,cs),
(124,592,o),
(24,472,o),
(24,288,cs),
(24,104,o),
(120,-16,o),
(296,-16,cs)
);
},
{
closed = 1;
nodes = (
(192,88,o),
(136,160,o),
(136,288,cs),
(136,416,o),
(194,488,o),
(296,488,cs),
(398,488,o),
(456,414,o),
(456,288,cs),
(456,162,o),
(400,88,o),
(296,88,cs)
);
}
);
width = 592;
}
);
unicode = 111;
},
{
color = 5;
glyphname = p;
lastChange = "2024-03-15 09:11:41 +0000";
layers = (
{
layerId = m01;
shapes = (
{
closed = 1;
nodes = (
(48,560,l),
(48,-184,l),
(64,-200,l),
(144,-200,l),
(160,-184,l),
(160,64,l),
(176,64,l),
(200,24,o),
(248,-16,o),
(320,-16,cs),
(472,-16,o),
(568,112,o),
(568,288,cs),
(568,464,o),
(468,592,o),
(320,592,cs),
(248,592,o),
(200,560,o),
(176,520,c),
(160,520,l),
(144,560,l),
(128,576,l),
(64,576,l)
);
},
{
closed = 1;
nodes = (
(400,488,o),
(456,416,o),
(456,288,cs),
(456,164,o),
(400,88,o),
(304,88,cs),
(216,88,o),
(152,164,o),
(152,288,cs),
(152,416,o),
(216,488,o),
(304,488,cs)
);
}
);
width = 592;
}
);
unicode = 112;
},
{
color = 5;
glyphname = q;
lastChange = "2024-03-15 09:11:44 +0000";
layers = (
{
layerId = m01;
shapes = (
{
closed = 1;
nodes = (
(464,576,l),
(448,560,l),
(432,520,l),
(416,520,l),
(392,560,o),
(344,592,o),
(272,592,cs),
(124,592,o),
(24,464,o),
(24,288,cs),
(24,112,o),
(120,-16,o),
(272,-16,cs),
(344,-16,o),
(392,24,o),
(416,64,c),
(432,64,l),
(432,-184,l),
(448,-200,l),
(528,-200,l),
(544,-184,l),
(544,560,l),
(528,576,l)
);
},
{
closed = 1;
nodes = (
(376,488,o),
(440,416,o),
(440,288,cs),
(440,164,o),
(376,88,o),
(288,88,cs),
(192,88,o),
(136,164,o),
(136,288,cs),
(136,416,o),
(192,488,o),
(288,488,cs)
);
}
);
width = 592;
}
);
unicode = 113;
},
{
color = 5;
glyphname = r;
kernLeft = n;
kernRight = r;
lastChange = "2024-03-14 05:28:30 +0000";
layers = (
{
layerId = m01;
shapes = (
{
closed = 1;
nodes = (
(144,0,l),
(160,16,l),
(160,296,ls),
(160,408,o),
(192,472,o),
(304,472,cs),
(344,472,l),
(360,488,l),
(360,560,l),
(344,576,l),
(320,576,ls),
(248,576,o),
(216,552,o),
(176,512,c),
(160,512,l),
(144,560,l),
(128,576,l),
(64,576,l),
(48,560,l),
(48,16,l),
(64,0,l)
);
}
);
width = 368;
}
);
unicode = 114;
},
{
color = 5;
glyphname = s;
lastChange = "2024-03-14 05:28:30 +0000";
layers = (
{
layerId = m01;
shapes = (
{
closed = 1;
nodes = (
(408,-16,o),
(472,70,o),
(472,160,cs),
(472,264,o),
(416,312,o),
(304,336,cs),
(192,360,o),
(140,368,o),
(140,424,cs),
(140,472,o),
(192,492,o),
(248,492,cs),
(332,492,o),
(352,456,o),
(352,416,c),
(368,400,l),
(448,400,l),
(464,416,l),
(464,536,o),
(376,592,o),
(248,592,cs),
(88,592,o),
(32,504,o),
(32,424,cs),
(32,322,o),
(104,280,o),
(216,256,cs),
(328,232,o),
(364,216,o),
(364,160,cs),
(364,116,o),
(328,84,o),
(248,84,cs),
(168,84,o),
(128,120,o),
(128,176,c),
(112,192,l),
(32,192,l),
(16,176,l),
(16,48,o),
(100,-16,o),
(248,-16,cs)
);
}
);
width = 488;
}
);
unicode = 115;
},
{
color = 5;
glyphname = t;
kernLeft = t;
kernRight = t;
lastChange = "2024-03-14 05:28:30 +0000";
layers = (
{
layerId = m01;
shapes = (
{
closed = 1;
nodes = (
(360,0,l),
(376,16,l),
(376,88,l),
(360,104,l),
(272,104,ls),
(240,104,o),
(224,120,o),
(224,152,cs),
(224,456,l),
(240,472,l),
(360,472,l),
(376,488,l),
(376,560,l),
(360,576,l),
(240,576,l),
(224,592,l),
(224,720,l),
(208,736,l),
(128,736,l),
(112,720,l),
(112,592,l),
(96,576,l),
(24,576,l),
(8,560,l),
(8,488,l),
(24,472,l),
(96,472,l),
(112,456,l),
(112,144,ls),
(112,48,o),
(168,0,o),
(264,0,cs)
);
}
);
width = 392;
}
);
unicode = 116;
},
{
color = 5;
glyphname = u;
lastChange = "2024-03-15 09:12:42 +0000";
layers = (
{
layerId = m01;
shapes = (
{
closed = 1;
nodes = (
(424,576,l),
(408,560,l),
(408,288,ls),
(408,152,o),
(360,88,o),
(264,88,cs),
(156,88,o),
(144,176,o),
(144,232,cs),
(144,560,l),
(128,576,l),
(48,576,l),
(32,560,l),
(32,232,ls),
(32,96,o),
(88,-16,o),
(248,-16,cs),
(328,-16,o),
(368,32,o),
(392,64,c),
(408,64,l),
(424,16,l),
(440,0,l),
(504,0,l),
(520,16,l),
(520,560,l),
(504,576,l)
);
}
);
width = 568;
}
);
unicode = 117;
},
{
color = 5;
glyphname = v;
lastChange = "2024-03-15 09:24:55 +0000";
layers = (
{
layerId = m01;
shapes = (
{
closed = 1;
nodes = (
(320,0,l),
(336,16,l),
(528,484,l),
(528,560,l),
(512,576,l),
(452,576,l),
(436,560,l),
(280,144,l),
(264,144,l),
(108,560,l),
(92,576,l),
(32,576,l),
(16,560,l),
(16,484,l),
(208,16,l),
(224,0,l)
);
}
);
width = 544;
}
);
unicode = 118;
},
{
color = 5;
glyphname = w;
lastChange = "2024-03-15 09:29:21 +0000";
layers = (
{
layerId = m01;
shapes = (
{
closed = 1;
nodes = (
(260,0,l),
(276,16,l),
(388,416,l),
(404,416,l),
(516,16,l),
(532,0,l),
(628,0,l),
(644,16,l),
(780,484,l),
(780,560,l),
(764,576,l),
(704,576,l),
(688,560,l),
(588,172,l),
(572,172,l),
(460,560,l),
(444,576,l),
(352,576,l),
(336,560,l),
(220,172,l),
(208,172,l),
(104,560,l),
(88,576,l),
(32,576,l),
(16,560,l),
(16,484,l),
(152,16,l),
(168,0,l)
);
}
);
width = 796;
}
);
unicode = 119;
},
{
color = 5;
glyphname = x;
lastChange = "2024-03-15 09:31:32 +0000";
layers = (
{
layerId = m01;
shapes = (
{
closed = 1;
nodes = (
(76,0,l),
(92,16,l),
(260,208,l),
(280,208,l),
(444,16,l),
(460,0,l),
(500,0,l),
(516,16,l),
(516,92,l),
(344,284,l),
(344,300,l),
(504,484,l),
(504,560,l),
(488,576,l),
(452,576,l),
(436,560,l),
(280,376,l),
(260,376,l),
(104,560,l),
(88,576,l),
(52,576,l),
(36,560,l),
(36,484,l),
(196,300,l),
(196,284,l),
(24,92,l),
(24,16,l),
(40,0,l)
);
}
);
width = 540;
}
);
unicode = 120;
},
{
color = 5;
glyphname = y;
lastChange = "2024-03-15 09:34:09 +0000";
layers = (
{
layerId = m01;
shapes = (
{
closed = 1;
nodes = (
(112,-200,ls),
(244,-200,o),
(272,-176,o),
(348,24,cs),
(528,484,l),
(528,560,l),
(512,576,l),
(452,576,l),
(436,560,l),
(280,136,l),
(264,136,l),
(108,560,l),
(92,576,l),
(32,576,l),
(16,560,l),
(16,484,l),
(208,0,l),
(208,-16,l),
(180,-88,o),
(160,-96,o),
(96,-96,cs),
(76,-96,l),
(60,-112,l),
(60,-184,l),
(76,-200,l)
);
}
);
width = 544;
}
);
unicode = 121;
},
{
color = 5;
glyphname = z;
lastChange = "2024-03-15 10:07:20 +0000";
layers = (
{
layerId = m01;
shapes = (
{
closed = 1;
nodes = (
(496,0,l),
(512,16,l),
(512,88,l),
(496,104,l),
(180,104,l),
(180,120,l),
(484,452,l),
(500,480,l),
(500,560,l),
(484,576,l),
(56,576,l),
(40,560,l),
(40,488,l),
(56,472,l),
(352,472,l),
(352,460,l),
(40,128,l),
(32,104,l),
(32,16,l),
(48,0,l)
);
}
);
width = 544;
}
);
unicode = 122;
},
{
color = 5;
glyphname = a.001;
kernLeft = a;
kernRight = a;
lastChange = "2024-03-14 05:28:30 +0000";
layers = (
{
layerId = m01;
shapes = (
{
closed = 1;
nodes = (
(320,-16,o),
(360,24,o),
(392,56,c),
(408,56,l),
(424,16,l),
(440,0,l),
(488,0,l),
(504,16,l),
(504,392,ls),
(504,528,o),
(432,592,o),
(280,592,cs),
(112,592,o),
(48,512,o),
(48,432,cs),
(48,416,l),
(64,400,l),
(144,400,l),
(160,416,l),
(160,424,ls),
(160,464,o),
(208,488,o),
(280,488,cs),
(360,488,o),
(392,464,o),
(392,376,cs),
(392,360,l),
(376,344,l),
(280,344,ls),
(128,344,o),
(24,296,o),
(24,168,cs),
(24,56,o),
(112,-16,o),
(224,-16,cs)
);
},
{
closed = 1;
nodes = (
(176,88,o),
(136,104,o),
(136,168,cs),
(136,232,o),
(168,248,o),
(280,248,cs),
(376,248,l),
(392,232,l),
(392,208,ls),
(392,136,o),
(336,88,o),
(240,88,cs)
);
}
);
width = 560;
}
);
},
{
color = 5;
glyphname = zero;
lastChange = "2024-03-15 05:56:43 +0000";
layers = (
{
layerId = m01;
shapes = (
{
closed = 1;
nodes = (
(476,-16,o),
(600,92,o),
(600,400,cs),
(600,708,o),
(476,816,o),
(316,816,cs),
(156,816,o),
(32,708,o),
(32,400,cs),
(32,92,o),
(156,-16,o),
(316,-16,cs)
);
},
{
closed = 1;
nodes = (
(212,92,o),
(144,172,o),
(144,400,cs),
(144,628,o),
(212,712,o),
(316,712,cs),
(420,712,o),
(488,628,o),
(488,400,cs),
(488,172,o),
(420,92,o),
(316,92,cs)
);
}
);
width = 632;
}
);
unicode = 48;
},
{
color = 5;
glyphname = one;
lastChange = "2024-03-15 04:20:13 +0000";
layers = (
{
layerId = m01;
shapes = (
{
closed = 1;
nodes = (
(312,0,l),
(328,16,l),
(328,784,l),
(312,800,l),
(224,800,l),
(208,784,l),
(208,724,o),
(132,652,o),
(48,652,c),
(32,636,l),
(32,568,l),
(48,552,l),
(196,552,l),
(212,536,l),
(212,16,l),
(228,0,l)
);
}
);
width = 360;
}
);
unicode = 49;
},
{
color = 5;
glyphname = two;
lastChange = "2024-03-15 04:27:48 +0000";
layers = (
{
layerId = m01;
shapes = (
{
closed = 1;
nodes = (
(552,0,l),
(568,16,l),
(568,88,l),
(552,104,l),
(192,104,l),
(192,120,l),
(360,252,ls),
(476,344,o),
(544,424,o),
(544,572,cs),
(544,688,o),
(476,816,o),
(292,816,cs),
(120,816,o),
(32,712,o),
(32,564,c),
(48,548,l),
(128,548,l),
(144,564,l),
(144,656,o),
(192,708,o),
(292,708,cs),
(396,708,o),
(432,652,o),
(432,572,cs),
(432,468,o),
(384,400,o),
(272,308,cs),
(48,128,l),
(32,96,l),
(32,16,l),
(44,0,l)
);
}
);
width = 600;
}
);
unicode = 50;
},
{
color = 5;
glyphname = three;
lastChange = "2024-03-15 04:27:58 +0000";
layers = (
{
layerId = m01;
shapes = (
{
closed = 1;
nodes = (
(468,-16,o),
(584,92,o),
(584,264,cs),
(584,364,o),
(548,380,o),
(500,416,c),
(548,452,o),
(584,436,o),
(584,536,cs),
(584,708,o),
(468,816,o),
(296,816,cs),
(136,816,o),
(36,716,o),
(36,592,c),
(52,576,l),
(132,576,l),
(148,592,l),
(148,648,o),
(192,708,o),
(296,708,cs),
(412,708,o),
(468,640,o),
(468,536,cs),
(468,432,o),
(412,456,o),
(320,456,cs),
(200,456,l),
(184,440,l),
(184,392,l),
(200,376,l),
(320,376,ls),
(412,376,o),
(468,368,o),
(468,264,cs),
(468,160,o),
(412,92,o),
(296,92,cs),
(192,92,o),
(148,156,o),
(148,212,c),
(136,228,l),
(52,228,l),
(36,212,l),
(36,88,o),
(136,-16,o),
(296,-16,cs)
);
}
);
width = 600;
}
);
unicode = 51;
},
{
color = 5;
glyphname = four;
lastChange = "2024-03-15 04:37:44 +0000";
layers = (
{
layerId = m01;
shapes = (
{
closed = 1;
nodes = (
(448,0,l),
(464,16,l),
(464,216,l),
(480,232,l),
(560,232,l),
(576,248,l),
(576,316,l),
(560,332,l),
(480,332,l),
(464,348,l),
(464,784,l),
(448,800,l),
(352,800,l),
(328,788,l),
(28,356,l),
(16,332,l),
(16,248,l),
(32,232,l),
(336,232,l),
(352,216,l),
(352,16,l),
(368,0,l)
);
},
{
closed = 1;
nodes = (
(140,348,l),
(336,652,l),
(352,652,l),
(352,348,l),
(336,332,l),
(140,332,l)
);
}
);
width = 584;
}
);
unicode = 52;
},
{
color = 5;
glyphname = five;
lastChange = "2024-03-15 04:44:35 +0000";
layers = (
{
layerId = m01;
shapes = (
{
closed = 1;
nodes = (
(452,-16,o),
(556,72,o),
(556,276,cs),
(556,412,o),
(488,548,o),
(316,548,cs),
(220,548,o),
(184,512,o),
(152,480,c),
(136,480,l),
(152,680,l),
(168,696,l),
(472,696,l),
(488,712,l),
(488,784,l),
(472,800,l),
(68,800,l),
(52,784,l),
(28,380,l),
(44,364,l),
(112,364,l),
(128,380,l),
(160,412,o),
(212,448,o),
(292,448,cs),
(408,448,o),
(440,380,o),
(440,276,cs),
(440,164,o),
(396,92,o),
(280,92,cs),
(164,92,o),
(140,144,o),
(132,212,c),
(116,228,l),
(32,228,l),
(16,212,l),
(28,76,o),
(108,-16,o),
(280,-16,cs)
);
}
);
width = 572;
}
);
unicode = 53;
},
{
color = 5;
glyphname = six;
lastChange = "2024-03-15 04:56:18 +0000";
layers = (
{
layerId = m01;
shapes = (
{
closed = 1;
nodes = (
(476,-16,o),
(584,92,o),
(584,264,cs),
(584,424,o),
(492,528,o),
(332,528,cs),
(242,528,o),
(192,484,o),
(176,468,c),
(160,468,l),
(160,584,o),
(192,712,o),
(320,712,cs),
(400,712,o),
(444,696,o),
(456,624,c),
(472,608,l),
(556,608,l),
(572,624,l),
(560,752,o),
(468,816,o),
(332,816,cs),
(148,816,o),
(32,708,o),
(32,388,cs),
(32,80,o),
(144,-16,o),
(316,-16,cs)
);
},
{
closed = 1;
nodes = (
(228,92,o),
(160,148,o),
(160,264,cs),
(160,368,o),
(216,424,o),
(320,424,cs),
(432,424,o),
(468,356,o),
(468,252,cs),
(468,148,o),
(412,92,o),
(308,92,cs)
);
}
);
width = 616;
}
);
unicode = 54;
},
{
color = 5;
glyphname = seven;
lastChange = "2024-03-15 05:07:44 +0000";
layers = (
{
layerId = m01;
shapes = (
{
closed = 1;
nodes = (
(180,0,l),
(196,16,l),
(516,696,l),
(516,784,l),
(500,800,l),
(32,800,l),
(16,784,l),
(16,712,l),
(32,696,l),
(388,696,l),
(388,680,l),
(104,104,l),
(104,16,l),
(120,0,l)
);
}
);
width = 532;
}
);
unicode = 55;
},
{
color = 5;
glyphname = eight;
lastChange = "2024-03-15 05:07:01 +0000";
layers = (
{
layerId = m01;
shapes = (
{
closed = 1;
nodes = (
(488,-16,o),
(580,104,o),
(580,228,cs),
(580,344,o),
(512,396,o),
(464,420,c),
(464,436,l),
(500,456,o),
(556,504,o),
(556,596,cs),
(556,708,o),
(476,816,o),
(304,816,cs),
(132,816,o),
(52,708,o),
(52,596,cs),
(52,504,o),
(112,456,o),
(144,436,c),
(144,420,l),
(100,396,o),
(32,344,o),
(32,228,cs),
(32,104,o),
(120,-16,o),
(304,-16,cs)
);
},
{
closed = 1;
nodes = (
(212,468,o),
(168,528,o),
(168,596,cs),
(168,652,o),
(200,712,o),
(304,712,cs),
(408,712,o),
(440,652,o),
(440,596,cs),
(440,528,o),
(396,468,o),
(304,468,cs)
);
},
{
closed = 1;
nodes = (
(192,88,o),
(144,160,o),
(144,228,cs),
(144,308,o),
(192,376,o),
(304,376,cs),
(420,376,o),
(464,308,o),
(464,228,cs),
(464,160,o),
(420,88,o),
(304,88,cs)
);
}
);
width = 612;
}
);
unicode = 56;
},
{
color = 5;
glyphname = nine;
lastChange = "2024-03-15 05:17:38 +0000";
layers = (
{
layerId = m01;
shapes = (
{
closed = 1;
nodes = (
(476,-16,o),
(580,104,o),
(580,424,cs),
(580,720,o),
(476,816,o),
(292,816,cs),
(144,816,o),
(32,720,o),
(32,548,cs),
(32,388,o),
(132,288,o),
(280,288,cs),
(372,288,o),
(412,324,o),
(436,344,c),
(452,344,l),
(452,276,o),
(452,88,o),
(292,88,cs),
(224,88,o),
(184,112,o),
(172,180,c),
(156,196,l),
(68,196,l),
(52,180,l),
(64,52,o),
(156,-16,o),
(280,-16,cs)
);
},
{
closed = 1;
nodes = (
(200,388,o),
(144,448,o),
(144,548,cs),
(144,652,o),
(200,712,o),
(292,712,cs),
(384,712,o),
(452,664,o),
(452,548,cs),
(452,448,o),
(396,388,o),
(292,388,cs)
);
}
);
width = 612;
}
);
unicode = 57;
},
{
color = 5;
glyphname = period;
lastChange = "2024-03-15 03:13:15 +0000";
layers = (
{
layerId = m01;
shapes = (
{
closed = 1;
nodes = (
(144,0,l),
(160,16,l),
(160,112,l),
(144,128,l),
(48,128,l),
(32,112,l),
(32,16,l),
(48,0,l)
);
}
);
width = 192;
}
);
unicode = 46;
},
{
color = 5;
glyphname = colon;
kernLeft = colon;
kernRight = colon;
lastChange = "2024-03-15 03:13:15 +0000";
layers = (
{
layerId = m01;
shapes = (
{
closed = 1;
nodes = (
(144,0,l),
(160,16,l),
(160,112,l),
(144,128,l),
(48,128,l),
(32,112,l),
(32,16,l),
(48,0,l)
);
},
{
closed = 1;
nodes = (
(144,448,l),
(160,464,l),
(160,560,l),
(144,576,l),
(48,576,l),
(32,560,l),
(32,464,l),
(48,448,l)
);
}
);
width = 192;
}
);
unicode = 58;
},
{
color = 5;
glyphname = slash;
kernLeft = slash;
kernRight = slash;
lastChange = "2024-03-15 03:13:15 +0000";
layers = (
{
layerId = m01;
shapes = (
{
closed = 1;
nodes = (
(400,712,l),
(400,784,l),
(384,800,l),
(344,800,l),
(328,792,l),
(16,88,l),
(16,16,l),
(32,0,l),
(72,0,l),
(88,8,l)
);
}
);
width = 416;
}
);
unicode = 47;
},
{
color = 5;
glyphname = hyphen;
lastChange = "2024-03-15 03:13:15 +0000";
layers = (
{
layerId = m01;
shapes = (
{
closed = 1;
nodes = (
(432,288,l),
(448,304,l),
(448,400,l),
(432,416,l),
(48,416,l),
(32,400,l),
(32,304,l),
(48,288,l)
);
}
);
width = 480;
}
);
unicode = 45;
},
{
color = 5;
glyphname = quoteright;
kernLeft = quoteright;
kernRight = quoteright;
lastChange = "2024-03-15 03:13:15 +0000";
layers = (
{
layerId = m01;
shapes = (
{
closed = 1;
nodes = (
(112,656,l),
(128,672,l),
(128,816,l),
(112,832,l),
(48,832,l),
(32,816,l),
(32,672,l),
(48,656,l)
);
}
